<?xml version="1.0" encoding="UTF-8"?>
<svg width="24px" height="24px" viewBox="0 0 24 24" version="1.1" xmlns="http://www.w3.org/2000/svg" xmlns:xlink="http://www.w3.org/1999/xlink">
    <!-- Generator: Sketch 41.1 (35376) - http://www.bohemiancoding.com/sketch -->
    <title>Artboard</title>
    <desc>Created with Sketch.</desc>
    <defs></defs>
    <g id="Page-1" stroke="none" stroke-width="1" fill="none" fill-rule="evenodd">
        <g id="Logo_Playbuzz_preto" transform="translate(-1.000000, -1.000000)" fill="#000000">
            <g id="Group">
                <g id="Layer_1" transform="translate(0.009231, 0.009231)" fill-opacity="0">
                    <rect id="Rectangle" x="0.990769231" y="0.990769231" width="24" height="24"></rect>
                </g>
                <g id="Layer_4" transform="translate(7.923077, 5.538462)">
                    <path d="M5.50005518,0.29332192 C2.46240982,0.29332192 1.50990331e-14,2.75573175 1.50990331e-14,5.79326674 C1.50990331e-14,5.89822625 0.00364212829,6.00252356 0.00938123953,6.10593793 L1.50990331e-14,6.10593793 L1.50990331e-14,15.008955 L2.64297109,11.3404489 L2.64142595,10.49095 C2.64164668,10.4911708 2.64186742,10.4912811 2.64208815,10.4913915 L2.64208815,6.04302844 C2.63524537,5.96234978 2.63094103,5.88089855 2.63094103,5.79834364 C2.63094103,5.71600947 2.63524537,5.63455824 2.64208815,5.55387958 L2.64208815,5.54681606 L2.64263999,5.54681606 C2.77022485,4.0802524 4.00049164,2.92933986 5.50016555,2.92933986 C7.08449136,2.92933986 8.36905897,4.21401784 8.36905897,5.79834364 C8.36905897,7.38289018 7.08449136,8.66745779 5.50016555,8.66745779 C5.2097886,8.66745779 4.93033803,8.62275895 4.66622854,8.54241139 L3.18531711,10.7779056 C3.88935154,11.1060282 4.67207802,11.2932116 5.50016555,11.2932116 C8.53759018,11.2932116 11,8.83080173 11,5.79326674 C11,2.75573175 8.53747981,0.29332192 5.50005518,0.29332192 Z" id="Shape"></path>
                </g>
            </g>
        </g>
        <g id="Artboard"></g>
    </g>
</svg>